HIERARCHY
ROOT hip
{
	OFFSET 0.000000 0.000000 0.000000 
	CHANNELS 6 Xposition Yposition Zposition Xrotation Zrotation Yrotation
	JOINT abdomen
	{
		OFFSET 0.000000 3.402643 0.000000 
		CHANNELS 3 Xrotation Zrotation Yrotation
		JOINT chest
		{
			OFFSET 0.000000 8.438565 -0.680529 
			CHANNELS 3 Xrotation Zrotation Yrotation
			JOINT neck
			{
				OFFSET 0.000000 10.207942 -0.272212 
				CHANNELS 3 Xrotation Zrotation Yrotation
				JOINT head
				{
					OFFSET 0.000000 3.130431 0.000000 
					CHANNELS 3 Xrotation Zrotation Yrotation
					End Site
					{
						OFFSET 0.000000 3.130435 0.000000 
					}
				}
			}
			JOINT lCollar
			{
				OFFSET 3.470700 6.669187 -0.816635 
				CHANNELS 3 Yrotation Zrotation Xrotation
				JOINT lShldr
				{
					OFFSET 3.198488 0.000000 0.000000 
					CHANNELS 3 Zrotation Yrotation Xrotation
					JOINT lForeArm
					{
						OFFSET 10.139888 0.000000 0.000000 
						CHANNELS 3 Yrotation Zrotation Xrotation
						JOINT lHand
						{
							OFFSET 8.370511 0.000000 0.000000 
							CHANNELS 3 Zrotation Yrotation Xrotation
							End Site
							{
								OFFSET 4.083176 0.000000 0.000000 
							}
						}
					}
				}
			}
			JOINT rCollar
			{
				OFFSET -3.470700 6.669187 -0.816635 
				CHANNELS 3 Yrotation Zrotation Xrotation
				JOINT rShldr
				{
					OFFSET -3.198488 0.000000 0.000000 
					CHANNELS 3 Zrotation Yrotation Xrotation
					JOINT rForeArm
					{
						OFFSET -10.139888 0.000000 0.000000 
						CHANNELS 3 Yrotation Zrotation Xrotation
						JOINT rHand
						{
							OFFSET -8.370511 0.000000 0.000000 
							CHANNELS 3 Zrotation Yrotation Xrotation
							End Site
							{
								OFFSET -4.083176 0.000000 0.000000 
							}
						}
					}
				}
			}
		}
	}
	JOINT lThigh
	{
		OFFSET 5.308129 -1.633274 1.361059 
		CHANNELS 3 Xrotation Zrotation Yrotation
		JOINT lShin
		{
			OFFSET -2.041588 -20.007561 0.000000 
			CHANNELS 3 Xrotation Zrotation Yrotation
			JOINT lFoot
			{
				OFFSET 0.000000 -19.190928 -1.224953 
				CHANNELS 3 Xrotation Yrotation Zrotation
				End Site
				{
					OFFSET 0.000000 -2.449906 4.627600 
				}
			}
		}
	}
	JOINT rThigh
	{
		OFFSET -5.308129 -1.633274 1.361059 
		CHANNELS 3 Xrotation Zrotation Yrotation
		JOINT rShin
		{
			OFFSET 2.041588 -20.007561 0.000000 
			CHANNELS 3 Xrotation Zrotation Yrotation
			JOINT rFoot
			{
				OFFSET 0.000000 -19.190928 -1.224953 
				CHANNELS 3 Xrotation Yrotation Zrotation
				End Site
				{
					OFFSET 0.000000 -2.449906 4.627600 
				}
			}
		}
	}
}
MOTION
Frames: 10
Frame Time: 0.016667
0.539584 53.134960 0.276253 -8.548406 -0.331972 -1.084023 16.687784 0.968780 -0.070339 4.227686 0.927674 -1.015697 1.262851 8.848992 -0.259087 13.412125 -2.822502 8.193314 -18.689924 -15.681076 -0.836268 -66.253578 8.559224 -21.295818 -66.659851 -5.000000 2.727759 -12.838712 -16.099245 -45.000000 19.274443 15.762214 -0.834036 53.141724 -3.528074 -7.845529 93.978668 5.000000 -2.786503 15.180611 -24.383547 -21.797373 15.534147 12.410677 8.697510 7.067040 -6.102580 -0.982972 -11.468456 7.413742 -4.176301 17.834709 -7.283348 -8.308383 -0.340221 1.943237 -0.024288 -6.260270 -13.229890 7.219804 
0.542175 53.134960 0.276211 -8.548829 -0.312445 -1.074256 16.707066 0.968099 -0.070004 4.227370 0.927670 -1.025460 1.261529 8.808920 -0.262791 13.389385 -2.851639 8.173804 -18.697388 -15.703708 -0.828367 -66.244293 8.571703 -21.290417 -66.670593 -5.000000 2.727463 -12.879488 -16.059406 -45.000000 19.264530 15.752463 -0.833532 53.153690 -3.536409 -7.875371 93.979172 5.000000 -2.781762 15.163047 -24.364590 -21.734642 15.533035 12.381379 8.681563 7.065507 -6.073995 -0.991497 -11.406560 7.430820 -4.170650 17.847668 -7.303387 -8.322544 -0.339916 1.953203 -0.024491 -6.306218 -13.210856 7.182447 
0.544748 53.134960 0.276920 -8.558647 -0.312446 -1.064491 16.736197 0.980405 -0.075777 4.227096 0.937433 -1.025459 1.251898 8.779952 -0.258413 13.375940 -2.880709 8.164536 -18.697535 -15.713456 -0.828869 -66.235168 8.566317 -21.292908 -66.680855 -5.000000 2.729080 -12.916337 -16.028563 -45.000000 19.254766 15.752463 -0.833532 53.164856 -3.538908 -7.898022 93.979759 5.000000 -2.779103 15.163375 -24.360060 -21.682064 15.551496 12.390210 8.664462 7.057358 -6.083022 -1.010463 -11.355680 7.372788 -4.181554 17.860003 -7.324121 -8.326989 -0.340166 1.972254 -0.054199 -6.324975 -13.171458 7.219789 
0.547270 53.134960 0.278452 -8.577816 -0.331974 -1.064492 16.775396 1.007919 -0.065879 4.227096 0.937433 -1.025459 1.221247 8.749536 -0.263579 13.374152 -2.900183 8.145029 -18.707594 -15.732958 -0.829875 -66.229233 8.559825 -21.316984 -66.689629 -5.000000 2.735677 -12.961239 -16.008228 -45.000000 19.254616 15.742714 -0.833028 53.174545 -3.537566 -7.898624 93.979759 5.000000 -2.779103 15.176193 -24.359463 -21.655775 15.578711 12.388764 8.675700 7.054967 -6.071248 -0.990500 -11.377214 7.395806 -4.167878 17.881479 -7.301860 -8.352507 -0.349794 1.971772 -0.005884 -6.356963 -13.202406 7.224839 
0.550041 53.134960 0.280447 -8.597107 -0.341737 -1.074258 16.804846 1.026314 -0.059422 4.236744 0.947198 -1.025459 1.192039 8.730223 -0.260660 13.372376 -2.919660 8.125521 -18.707741 -15.742714 -0.830378 -66.230942 8.545875 -21.335152 -66.698891 -5.000000 2.743028 -13.006124 -15.987864 -45.000000 19.244705 15.732960 -0.832523 53.185051 -3.542047 -7.907026 93.966187 5.000000 -2.771688 15.180826 -24.352427 -21.611778 15.614326 12.392553 8.676842 7.024782 -6.061067 -0.997151 -11.350593 7.432237 -4.162338 17.913046 -7.302531 -8.342364 -0.360995 1.989845 0.002934 -6.369974 -13.227865 7.210647 
0.553343 53.134945 0.282932 -8.616765 -0.331972 -1.084023 16.843918 1.017109 -0.062788 4.246720 0.956967 -1.015695 1.171209 8.690149 -0.265845 13.371118 -2.939209 8.096262 -18.708038 -15.762218 -0.831384 -66.225006 8.539390 -21.359232 -66.708199 -5.000000 2.745789 -13.026175 -15.999865 -45.000000 19.256918 15.719988 -0.840893 53.196217 -3.544528 -7.929075 93.979713 5.000000 -2.778062 15.183349 -24.367054 -21.569920 15.628424 12.360496 8.661760 7.023489 -6.032687 -0.986204 -11.367007 7.423261 -4.177698 17.928547 -7.314625 -8.324585 -0.359591 1.999533 -0.016778 -6.364942 -13.245399 7.215157 
0.556808 53.134945 0.285775 -8.636426 -0.322207 -1.093788 16.882906 1.007824 -0.065931 4.256425 0.976499 -1.005931 1.150388 8.650076 -0.269549 13.360980 -2.949020 8.076755 -18.708185 -15.771967 -0.831887 -66.226639 8.534371 -21.372000 -66.707611 -5.000000 2.752863 -13.050128 -16.002827 -45.000000 19.254026 15.703707 -0.831010 53.208347 -3.560640 -7.953082 93.980438 5.000000 -2.778526 15.181945 -24.372667 -21.526997 15.673306 12.353242 8.690971 7.015465 -6.041827 -0.995430 -11.365937 7.405586 -4.197303 17.952738 -7.332332 -8.319134 -0.379682 1.985626 -0.027347 -6.374177 -13.210679 7.208323 
0.559713 53.134941 0.288413 -8.636613 -0.312443 -1.093787 16.902395 1.007573 -0.065979 4.256482 0.986266 -0.996166 1.139388 8.600347 -0.271794 13.350850 -2.958832 8.057251 -18.708479 -15.791471 -0.832892 -66.220711 8.527896 -21.397526 -66.707176 -5.000000 2.750194 -13.045081 -16.018667 -45.000000 19.256470 15.690736 -0.839381 53.219528 -3.563105 -7.975138 93.982025 5.000000 -2.782577 15.186248 -24.377277 -21.479517 15.672021 12.323874 8.665021 6.983267 -6.019686 -0.972379 -11.373663 7.460516 -4.180175 17.963078 -7.332515 -8.309124 -0.379928 1.975390 -0.036903 -6.360126 -13.211649 7.218863 
0.562089 53.134941 0.290838 -8.646379 -0.312443 -1.093787 16.921675 1.023162 -0.081149 4.246884 0.986268 -0.976637 1.149382 8.552068 -0.264493 13.331823 -2.958903 8.047497 -18.718540 -15.810974 -0.833897 -66.214699 8.530355 -21.417658 -66.715584 -5.000000 2.750861 -13.018805 -16.029346 -45.000000 19.263500 15.684204 -0.830001 53.221165 -3.574740 -7.990741 93.982368 5.000000 -2.790906 15.185226 -24.371332 -21.440067 15.687225 12.321156 8.655932 6.985902 -6.031664 -0.972853 -11.399220 7.429420 -4.193724 17.970278 -7.341340 -8.321353 -0.398373 1.981955 -0.028332 -6.337169 -13.211926 7.211583 
0.564391 53.134941 0.293700 -8.646379 -0.312443 -1.093787 16.950932 1.022896 -0.081160 4.246776 0.996033 -0.976636 1.148161 8.502338 -0.266742 13.322059 -2.958903 8.047498 -18.718838 -15.830477 -0.834903 -66.210258 8.536736 -21.446600 -66.714149 -5.000000 2.752596 -13.001779 -16.043707 -45.000000 19.263500 15.684204 -0.830001 53.233315 -3.590832 -8.015366 93.983376 5.000000 -2.798657 15.194201 -24.361832 -21.408670 15.704449 12.300558 8.662725 6.944251 -6.020011 -0.968854 -11.433155 7.491443 -4.150753 18.007278 -7.353984 -8.313406 -0.427378 2.015577 -0.040446 -6.353700 -13.206239 7.190533 
